PathFileType	4	(X/Y/Z)	D:\TRACE\v60_Jaco2_6-2-23\BothDRS_Motion1_6-platform.trc
DataRate	CameraRate	NumFrames	NumMarkers	Units	OrigDataRate	OrigDataStartFrame	OrigNumFrames
100.00	100.00	      42	5	mm	100.00	3751	      7500
Frame#	Time	Left_Front			Right_Front			Left_Aft			Right_Aft			Post			
		X1	Y1	Z1	X2	Y2	Z2	X3	Y3	Z3	X4	Y4	Z4	X5	Y5	Z5	

3751	37.500	-753.74139	38.11021	-631.59424	816.22205	39.46412	-636.52625	-662.02753	-12.94030	502.46432	780.24945	-14.35479	512.05859	32.40384	1350.26038	-896.22742	
3752	37.510	-753.39691	38.21210	-631.73645	816.66083	39.43101	-636.57538	-661.63177	-12.78665	502.52988	780.62860	-14.32040	512.05383	32.60038	1350.15308	-896.24469	
3753	37.520	-752.93890	38.16562	-631.70551	817.05743	39.32449	-636.66412	-661.34937	-12.80405	502.90820	780.59729	-14.27427	512.13837	32.89948	1350.06616	-896.57635	
3754	37.530	-752.57574	38.10400	-631.62311	817.58673	39.24699	-636.63574	-660.84949	-12.72522	502.48483	781.12311	-14.08747	512.04620	33.62505	1349.91992	-897.10309	
3755	37.540	-752.27704	37.80449	-631.75110	817.95630	39.11089	-636.66614	-660.31659	-12.72866	502.32434	781.63440	-13.92087	511.93906	33.92799	1349.78674	-897.49762	
3756	37.550	-752.07886	37.79105	-631.78827	818.26013	38.95660	-636.76111	-660.02087	-12.65582	502.27106	781.98486	-13.85163	511.94171	34.50038	1349.57043	-897.70032	
3757	37.560	-751.73669	37.63435	-631.93262	818.45935	38.78461	-636.84167	-659.63794	-12.64183	502.26627	782.52844	-13.74612	511.88638	34.83320	1349.31616	-898.37213	
3758	37.570	-751.25476	37.40336	-632.02484	818.83392	38.58459	-636.79712	-659.36188	-12.51057	502.26959	782.80322	-13.51653	511.84750	35.10132	1349.10498	-899.02722	
3759	37.580	-751.03998	37.17294	-631.97986	819.07935	38.39263	-636.88055	-659.41589	-12.08198	502.20535	783.01520	-13.31367	511.83060	35.26954	1348.80750	-899.42114	
3760	37.590	-750.85889	37.01393	-632.10486	819.15198	38.24700	-636.99072	-659.06329	-12.14315	502.24158	783.15570	-13.20976	511.77615	35.26476	1348.59106	-899.68561	
3761	37.600	-750.60022	36.81123	-632.22729	819.25806	38.12441	-637.02515	-658.89813	-12.03213	502.16898	783.20874	-13.14442	511.70325	35.50856	1348.26978	-900.18799	
3762	37.610	-750.54492	36.65781	-632.24237	819.37488	37.78832	-637.14209	-658.73920	-11.94143	502.11868	783.29694	-13.04087	511.58786	35.49144	1347.86353	-900.68201	
3763	37.620	-750.47937	36.53669	-632.27185	819.27667	37.51168	-637.31482	-658.52606	-11.97027	502.11462	783.34296	-12.94306	511.43875	35.64873	1347.63989	-900.93475	
3764	37.630	-750.47955	36.27053	-632.30377	819.33350	37.33598	-637.36121	-658.36426	-11.92364	502.03662	783.39648	-12.67453	511.29953	35.67204	1347.43591	-901.05640	
3765	37.640	-750.45319	36.16091	-632.25690	819.34210	37.21672	-637.43427	-658.15350	-11.93201	501.92557	783.51990	-12.48738	511.05508	35.62650	1347.08093	-901.51764	
3766	37.650	-750.41315	36.00553	-632.30981	819.37714	37.17363	-637.48431	-658.03900	-11.92066	502.11816	783.52667	-12.54595	511.42078	35.74392	1346.81482	-902.10840	
3767	37.660	-750.31439	35.68390	-632.31555	819.39850	36.99006	-637.50616	-657.81543	-11.83885	502.09100	783.60382	-12.41868	511.35153	35.91560	1346.65942	-902.51538	
3768	37.670	-750.36841	34.94737	-632.34113	819.54041	36.64428	-637.57739	-658.38080	-10.94062	501.90030	783.59320	-12.29635	511.26782	36.01667	1346.28638	-903.00519	
3769	37.680	-750.29718	34.62127	-632.47266	819.70905	36.40374	-637.59375	-658.49396	-10.61368	501.82535	783.39185	-11.90434	511.25995	35.91946	1345.60803	-903.30554	
3770	37.690	-750.23163	34.36627	-632.69250	819.72723	36.01301	-637.55414	-658.58075	-10.29688	501.75504	783.25671	-11.81258	511.18481	35.67233	1344.98291	-904.37354	
3771	37.700	-750.28967	34.29730	-632.74701	819.66785	35.83010	-637.54071	-658.56427	-10.09633	501.68515	783.53448	-11.56311	510.96429	35.92000	1344.67200	-905.14087	
3772	37.710	-750.26178	34.16917	-632.74701	819.66241	35.55331	-637.59863	-658.54700	-9.85301	501.60019	783.66553	-11.18938	510.87991	36.10193	1344.56128	-906.01306	
3773	37.720	-750.22638	33.86119	-632.87543	819.67755	35.22085	-637.72681	-658.54492	-9.65166	501.47729	783.60779	-11.02951	510.78268	36.35489	1344.25403	-907.32892	
3774	37.730	-750.26471	33.39416	-633.02490	819.60046	34.94947	-637.86572	-658.52771	-9.48933	501.46747	783.57025	-10.75382	510.78659	35.81947	1343.65881	-908.27167	
3775	37.740	-750.43390	32.90601	-633.05292	819.51898	34.55476	-638.04572	-659.17017	-8.91256	501.63156	783.41632	-10.67426	510.74646	36.10042	1343.21252	-909.24213	
3776	37.750	-750.55640	32.73082	-632.97260	819.40741	34.22915	-638.15039	-659.20679	-8.92200	501.57413	783.01410	-10.94854	511.27722	36.27841	1342.79761	-909.67834	
3777	37.760	-750.70288	32.62372	-633.03302	819.29749	34.11058	-638.11469	-659.16797	-8.89414	501.39917	783.07764	-10.32041	510.96664	36.15544	1342.63220	-910.06531	
3778	37.770	-750.88989	32.49141	-633.17999	819.10236	34.05458	-638.17847	-659.14233	-8.91009	501.27179	783.19360	-10.05339	510.84729	35.38564	1342.26831	-910.73944	
3779	37.780	-751.20300	32.30446	-633.40216	818.85834	33.88211	-638.26605	-659.44580	-8.59242	501.06747	783.11163	-9.80633	510.72131	35.01865	1341.76135	-911.00043	
3780	37.790	-751.45337	31.84345	-633.72949	818.62305	33.47953	-638.44629	-659.75745	-8.23784	500.84711	782.66760	-9.53317	510.76193	34.16714	1341.30225	-911.06696	
3781	37.800	-751.72491	31.11075	-633.55066	818.31042	32.80572	-638.76007	-660.20251	-8.00702	500.79578	782.33716	-9.20753	510.75708	34.09797	1340.83508	-910.98163	
3782	37.810	-751.84076	30.67203	-633.63202	818.10132	32.33195	-638.88129	-660.44348	-7.84272	500.76328	782.15588	-9.06291	510.71671	34.23166	1340.00757	-911.25739	
3783	37.820	-751.99677	30.40833	-633.69275	817.92560	31.94532	-638.89038	-660.50421	-7.58130	500.81760	781.99213	-8.77420	510.64948	34.17698	1339.46094	-911.94751	
3784	37.830	-752.31268	30.03540	-633.80231	817.63885	31.70959	-638.90338	-660.60358	-7.44877	500.75769	781.67194	-8.48925	510.49573	33.40754	1339.19922	-913.48914	
3785	37.840	-752.79913	29.79806	-633.91388	817.13513	31.39390	-639.09113	-661.01727	-7.24358	500.67920	781.01202	-8.12245	510.42813	33.42189	1338.59924	-915.30664	
3786	37.850	-753.33722	29.32034	-633.90521	816.78876	30.95893	-639.20447	-661.54419	-6.98636	500.62100	780.82788	-7.99185	510.36935	33.05015	1338.00806	-916.57843	
3787	37.860	-753.80621	29.03065	-633.94757	816.28369	30.50881	-639.31842	-661.91626	-6.60039	500.52353	780.60474	-7.78263	510.28149	32.43120	1337.37720	-918.35394	
3788	37.870	-754.02362	28.74327	-634.16882	816.01965	30.11410	-639.28430	-662.26453	-6.27280	500.45752	780.17175	-7.46129	510.22729	32.42067	1337.00330	-919.75238	
3789	37.880	-754.40564	28.52207	-634.42853	815.76178	29.89309	-639.19281	-662.46844	-6.07190	500.44501	779.91010	-7.15064	510.13373	32.07592	1336.69409	-920.61780	
3790	37.890	-754.96326	28.22613	-634.48059	815.44592	29.62873	-639.30011	-662.83557	-5.84256	500.33716	779.44458	-6.88256	510.06964	31.44546	1336.23291	-921.62970	
3791	37.900	-755.35498	27.77481	-634.49847	814.83728	29.28407	-639.60284	-663.33026	-5.60225	500.21902	778.79163	-6.86321	509.85684	31.25902	1335.53748	-922.16772	
3792	37.910	-755.61713	27.18554	-634.69623	814.28680	28.84232	-639.81738	-663.88507	-5.34086	500.14526	778.23334	-6.65980	509.85461	30.96556	1334.82874	-922.63025	
